<svg xmlns="http://www.w3.org/2000/svg" viewBox="0 0 309.79 204.75"><defs><style>.cls-1,.cls-2,.cls-3{isolation:isolate;font-size:154.99px;fill:#ffc514;font-family:Arial-BoldMT, Arial;font-weight:700;}.cls-1{letter-spacing:-0.02em;}.cls-2{letter-spacing:-0.02em;}.cls-4{fill:#f57e20;}.cls-5{fill:none;}</style></defs><title>Asset 2</title><g id="Layer_2" data-name="Layer 2"><g id="Layer_1-2" data-name="Layer 1"><text class="cls-1" transform="translate(70.21 146.28) scale(0.98 1)">Y</text><text class="cls-2" transform="translate(145.68 146.28) scale(0.87 1)">P</text><text class="cls-3" transform="translate(0 146.4) scale(0.87 1)">H</text><text class="cls-3" transform="translate(220.27 146.28) scale(0.87 1)">E</text><path class="cls-4" d="M144,16C141.83,8.22,134.92,2.2,126.18.52,113.4-2,100.72,5.2,97.87,16.72a19.49,19.49,0,0,0,2.38,15L121,75.13l20.76-43.44A19.66,19.66,0,0,0,144,16ZM136.5,31.2c-6,7.71-17.88,9.55-26.43,4.1s-10.6-16.1-4.55-23.81c4.73-6,13.22-8.65,21.06-6.48a17.67,17.67,0,0,1,12.73,11.82A15.77,15.77,0,0,1,136.5,31.2Z"/><path class="cls-5" d="M154.16,39.19a18.79,18.79,0,1,1-9.83-28.8,18.39,18.39,0,0,1,12.61,13A18.8,18.8,0,0,1,154.16,39.19Z"/></g></g></svg>