<svg xmlns="http://www.w3.org/2000/svg" viewBox="0 0 354 227.82"><defs><style>.cls-1,.cls-2,.cls-3{isolation:isolate;font-size:175.77px;fill:#ffc514;font-family:Arial-BoldMT, Arial;font-weight:700;}.cls-1{letter-spacing:-0.02em;}.cls-2{letter-spacing:-0.02em;}.cls-4{fill:#f57e20;}.cls-5{fill:none;}</style></defs><title>Asset 1</title><g id="Layer_2" data-name="Layer 2"><g id="Layer_1-2" data-name="Layer 1"><g id="Layer_1-2-2" data-name="Layer 1-2"><text class="cls-1" transform="translate(81 161.51) scale(0.99 1)">Y</text><text class="cls-2" transform="translate(162 161.51) scale(0.87 1)">P</text><text class="cls-3" transform="translate(0 161.65) scale(0.87 1)">H</text><text class="cls-3" transform="translate(252 161.51) scale(0.87 1)">E</text><path class="cls-4" d="M162.57,17.63A23.14,23.14,0,0,0,144.94.57a23.5,23.5,0,0,0-25.7,34.28L139.8,82.62l20.57-47.77A23.63,23.63,0,0,0,162.57,17.63Zm-7.41,16.68a18.79,18.79,0,1,1-9.83-28.8,18.37,18.37,0,0,1,12.61,13A18.8,18.8,0,0,1,155.16,34.31Z"/><path class="cls-5" d="M155.16,36.6a18.79,18.79,0,1,1-9.83-28.8,18.41,18.41,0,0,1,12.61,13A18.8,18.8,0,0,1,155.16,36.6Z"/></g></g></g></svg>