<?xml version="1.0" encoding="utf-8"?>
<!-- Generator: Adobe Illustrator 23.0.6, SVG Export Plug-In . SVG Version: 6.00 Build 0)  -->
<svg version="1.1" id="Layer_1" xmlns="http://www.w3.org/2000/svg" xmlns:xlink="http://www.w3.org/1999/xlink" x="0px" y="0px"
	 viewBox="0 0 338 207" style="enable-background:new 0 0 338 207;" xml:space="preserve">
<style type="text/css">
	.st0{fill:#FFC514;}
	.st1{font-family:'Arial-BoldMT';}
	.st2{font-size:154.992px;}
	.st3{fill:#F57E20;}
	.st4{fill:none;}
</style>
<g>
	<text transform="matrix(0.983 0 0 1 67.0342 178.9287)" class="st0 st1 st2">Y</text>
	<text transform="matrix(0.8659 0 0 1 142.5059 178.9287)" class="st0 st1 st2">P</text>
	<text transform="matrix(0.8659 0 0 1 -3.1738 179.0527)" class="st0 st1 st2">H</text>
	<text transform="matrix(0.8659 0 0 1 217.1006 178.9287)" class="st0 st1 st2">E</text>
	<path class="st3" d="M140.8,48.7c-2.2-7.8-9.1-13.8-17.8-15.5c-12.8-2.6-25.5,4.7-28.3,16.2c-1.3,5.1-0.4,10.4,2.4,15l20.8,43.4
		l20.8-43.4C141.5,59.6,142.3,54,140.8,48.7z M133.3,63.9c-6,7.7-17.9,9.5-26.4,4.1c-8.6-5.4-10.6-16.1-4.6-23.8
		c4.7-6,13.2-8.6,21.1-6.5c6.3,1.7,11.1,6.1,12.7,11.8C137.6,54.4,136.6,59.7,133.3,63.9z"/>
	<path class="st4" d="M151,71.8c-6,8.5-17.7,10.5-26.2,4.5s-10.5-17.7-4.5-26.2c4.7-6.6,13.1-9.5,20.9-7.1c6.2,1.8,11,6.8,12.6,13
		C155.2,61.5,154.2,67.3,151,71.8z"/>
</g>
</svg>
